<mxfile host="app.diagrams.net" agent="Mozilla/5.0 (Windows NT 10.0; Win64; x64; rv:135.0) Gecko/20100101 Firefox/135.0" version="26.0.11">
  <diagram name="Page-1" id="O4dOPRTyCMKJxWzH-CqN">
    <mxGraphModel dx="1050" dy="538" grid="0" gridSize="10" guides="1" tooltips="1" connect="1" arrows="1" fold="1" page="1" pageScale="1" pageWidth="850" pageHeight="1100" math="0" shadow="0">
      <root>
        <mxCell id="0" />
        <mxCell id="1" parent="0" />
        <mxCell id="Jm31af164PiDxRmqdF33-10" style="edgeStyle=orthogonalEdgeStyle;rounded=0;orthogonalLoop=1;jettySize=auto;html=1;exitX=0.5;exitY=1;exitDx=0;exitDy=0;entryX=0.5;entryY=0;entryDx=0;entryDy=0;" edge="1" parent="1" source="Jm31af164PiDxRmqdF33-1" target="Jm31af164PiDxRmqdF33-2">
          <mxGeometry relative="1" as="geometry" />
        </mxCell>
        <mxCell id="Jm31af164PiDxRmqdF33-1" value="Sending Organization Note" style="rhombus;whiteSpace=wrap;html=1;" vertex="1" parent="1">
          <mxGeometry x="200" y="80" width="80" height="80" as="geometry" />
        </mxCell>
        <mxCell id="Jm31af164PiDxRmqdF33-11" style="edgeStyle=orthogonalEdgeStyle;rounded=0;orthogonalLoop=1;jettySize=auto;html=1;exitX=0.5;exitY=1;exitDx=0;exitDy=0;entryX=0.5;entryY=0;entryDx=0;entryDy=0;" edge="1" parent="1" source="Jm31af164PiDxRmqdF33-2" target="Jm31af164PiDxRmqdF33-3">
          <mxGeometry relative="1" as="geometry" />
        </mxCell>
        <mxCell id="Jm31af164PiDxRmqdF33-2" value="Sending Data Package" style="rhombus;whiteSpace=wrap;html=1;" vertex="1" parent="1">
          <mxGeometry x="200" y="200" width="80" height="80" as="geometry" />
        </mxCell>
        <mxCell id="Jm31af164PiDxRmqdF33-13" style="edgeStyle=orthogonalEdgeStyle;rounded=0;orthogonalLoop=1;jettySize=auto;html=1;exitX=1;exitY=0.5;exitDx=0;exitDy=0;entryX=0;entryY=0.5;entryDx=0;entryDy=0;" edge="1" parent="1" source="Jm31af164PiDxRmqdF33-3" target="Jm31af164PiDxRmqdF33-4">
          <mxGeometry relative="1" as="geometry" />
        </mxCell>
        <mxCell id="Jm31af164PiDxRmqdF33-3" value="Reception RIDs" style="rhombus;whiteSpace=wrap;html=1;" vertex="1" parent="1">
          <mxGeometry x="200" y="320" width="80" height="80" as="geometry" />
        </mxCell>
        <mxCell id="Jm31af164PiDxRmqdF33-14" style="edgeStyle=orthogonalEdgeStyle;rounded=0;orthogonalLoop=1;jettySize=auto;html=1;exitX=1;exitY=0.5;exitDx=0;exitDy=0;entryX=0;entryY=0.5;entryDx=0;entryDy=0;" edge="1" parent="1" source="Jm31af164PiDxRmqdF33-4" target="Jm31af164PiDxRmqdF33-5">
          <mxGeometry relative="1" as="geometry" />
        </mxCell>
        <mxCell id="Jm31af164PiDxRmqdF33-4" value="Creation of RIDs" style="rhombus;whiteSpace=wrap;html=1;" vertex="1" parent="1">
          <mxGeometry x="320" y="320" width="80" height="80" as="geometry" />
        </mxCell>
        <mxCell id="Jm31af164PiDxRmqdF33-15" style="edgeStyle=orthogonalEdgeStyle;rounded=0;orthogonalLoop=1;jettySize=auto;html=1;exitX=1;exitY=0.5;exitDx=0;exitDy=0;entryX=0;entryY=0.5;entryDx=0;entryDy=0;" edge="1" parent="1" source="Jm31af164PiDxRmqdF33-5" target="Jm31af164PiDxRmqdF33-6">
          <mxGeometry relative="1" as="geometry" />
        </mxCell>
        <mxCell id="Jm31af164PiDxRmqdF33-5" value="Processing of RIDs*" style="rhombus;whiteSpace=wrap;html=1;" vertex="1" parent="1">
          <mxGeometry x="440" y="320" width="80" height="80" as="geometry" />
        </mxCell>
        <mxCell id="Jm31af164PiDxRmqdF33-16" style="edgeStyle=orthogonalEdgeStyle;rounded=0;orthogonalLoop=1;jettySize=auto;html=1;exitX=0.5;exitY=1;exitDx=0;exitDy=0;entryX=0.5;entryY=0;entryDx=0;entryDy=0;" edge="1" parent="1" source="Jm31af164PiDxRmqdF33-6" target="Jm31af164PiDxRmqdF33-7">
          <mxGeometry relative="1" as="geometry" />
        </mxCell>
        <mxCell id="Jm31af164PiDxRmqdF33-6" value="Submission of RIDs" style="rhombus;whiteSpace=wrap;html=1;" vertex="1" parent="1">
          <mxGeometry x="560" y="320" width="80" height="80" as="geometry" />
        </mxCell>
        <mxCell id="Jm31af164PiDxRmqdF33-17" style="edgeStyle=orthogonalEdgeStyle;rounded=0;orthogonalLoop=1;jettySize=auto;html=1;exitX=0.5;exitY=1;exitDx=0;exitDy=0;entryX=0.5;entryY=0;entryDx=0;entryDy=0;" edge="1" parent="1" source="Jm31af164PiDxRmqdF33-7" target="Jm31af164PiDxRmqdF33-8">
          <mxGeometry relative="1" as="geometry" />
        </mxCell>
        <mxCell id="Jm31af164PiDxRmqdF33-7" value="Reception of Responses of RIDs" style="rhombus;whiteSpace=wrap;html=1;" vertex="1" parent="1">
          <mxGeometry x="200" y="440" width="80" height="80" as="geometry" />
        </mxCell>
        <mxCell id="Jm31af164PiDxRmqdF33-18" style="edgeStyle=orthogonalEdgeStyle;rounded=0;orthogonalLoop=1;jettySize=auto;html=1;exitX=0.5;exitY=1;exitDx=0;exitDy=0;" edge="1" parent="1" source="Jm31af164PiDxRmqdF33-8" target="Jm31af164PiDxRmqdF33-9">
          <mxGeometry relative="1" as="geometry" />
        </mxCell>
        <mxCell id="Jm31af164PiDxRmqdF33-8" value="Submission of Review Report" style="rhombus;whiteSpace=wrap;html=1;" vertex="1" parent="1">
          <mxGeometry x="200" y="560" width="80" height="80" as="geometry" />
        </mxCell>
        <mxCell id="Jm31af164PiDxRmqdF33-9" value="Recommendations of Board" style="rhombus;whiteSpace=wrap;html=1;" vertex="1" parent="1">
          <mxGeometry x="200" y="680" width="80" height="80" as="geometry" />
        </mxCell>
        <mxCell id="Jm31af164PiDxRmqdF33-19" value="* Redaction, deletion, summary, closure" style="text;html=1;align=center;verticalAlign=middle;whiteSpace=wrap;rounded=0;" vertex="1" parent="1">
          <mxGeometry x="425" y="450" width="250" height="10" as="geometry" />
        </mxCell>
        <mxCell id="Jm31af164PiDxRmqdF33-20" value="Text" style="text;html=1;align=center;verticalAlign=middle;whiteSpace=wrap;rounded=0;" vertex="1" parent="1">
          <mxGeometry x="380" y="360" width="60" height="30" as="geometry" />
        </mxCell>
        <mxCell id="Jm31af164PiDxRmqdF33-21" value="T- 2 weeks" style="text;html=1;align=left;verticalAlign=middle;whiteSpace=wrap;rounded=0;fontColor=light-dark(#ff8000, #ededed);" vertex="1" parent="1">
          <mxGeometry x="80" y="105" width="60" height="30" as="geometry" />
        </mxCell>
        <mxCell id="Jm31af164PiDxRmqdF33-22" value="T- 1 week" style="text;html=1;align=left;verticalAlign=middle;whiteSpace=wrap;rounded=0;fontColor=light-dark(#ff8000, #ededed);" vertex="1" parent="1">
          <mxGeometry x="80" y="225" width="60" height="30" as="geometry" />
        </mxCell>
        <mxCell id="Jm31af164PiDxRmqdF33-23" value="Review Collocation meeting" style="text;html=1;align=left;verticalAlign=middle;whiteSpace=wrap;rounded=0;fontColor=light-dark(#ff8000, #ededed);" vertex="1" parent="1">
          <mxGeometry x="80" y="345" width="110" height="30" as="geometry" />
        </mxCell>
        <mxCell id="Jm31af164PiDxRmqdF33-26" value="T+1 weeks" style="text;html=1;align=left;verticalAlign=middle;whiteSpace=wrap;rounded=0;fontColor=light-dark(#ff8000, #ededed);" vertex="1" parent="1">
          <mxGeometry x="80" y="465" width="70" height="30" as="geometry" />
        </mxCell>
        <mxCell id="Jm31af164PiDxRmqdF33-27" value="T+2 weeks" style="text;html=1;align=left;verticalAlign=middle;whiteSpace=wrap;rounded=0;fontColor=light-dark(#ff8000, #ededed);" vertex="1" parent="1">
          <mxGeometry x="80" y="585" width="70" height="30" as="geometry" />
        </mxCell>
        <mxCell id="Jm31af164PiDxRmqdF33-29" value="T+3 weeks" style="text;html=1;align=left;verticalAlign=middle;whiteSpace=wrap;rounded=0;fontColor=light-dark(#ff8000, #ededed);" vertex="1" parent="1">
          <mxGeometry x="80" y="705" width="70" height="30" as="geometry" />
        </mxCell>
      </root>
    </mxGraphModel>
  </diagram>
</mxfile>
